<svg width="512" height="512" viewBox="0 0 512 512" fill="none" xmlns="http://www.w3.org/2000/svg">
<g clip-path="url(#clip0_2_16)">
<rect width="512" height="512" fill="white"/>
<rect width="512" height="512" fill="#1E1E1E"/>
<path d="M299.715 203.915C298.761 194.29 294.664 186.812 287.425 181.483C280.187 176.153 270.363 173.489 257.954 173.489C249.522 173.489 242.403 174.682 236.596 177.068C230.789 179.375 226.335 182.597 223.232 186.733C220.21 190.869 218.698 195.562 218.698 200.812C218.539 205.188 219.454 209.006 221.442 212.267C223.511 215.528 226.335 218.352 229.914 220.739C233.494 223.045 237.63 225.074 242.323 226.824C247.016 228.494 252.028 229.926 257.357 231.119L279.312 236.369C289.971 238.756 299.755 241.937 308.664 245.915C317.573 249.892 325.289 254.784 331.812 260.591C338.335 266.398 343.386 273.239 346.965 281.114C350.624 288.989 352.494 298.017 352.573 308.199C352.494 323.153 348.675 336.119 341.119 347.097C333.641 357.994 322.823 366.466 308.664 372.511C294.585 378.477 277.602 381.46 257.715 381.46C237.988 381.46 220.806 378.438 206.17 372.392C191.613 366.347 180.238 357.398 172.045 345.545C163.931 333.614 159.675 318.858 159.278 301.278H209.272C209.829 309.472 212.175 316.312 216.312 321.801C220.528 327.21 226.136 331.307 233.136 334.091C240.215 336.795 248.21 338.148 257.119 338.148C265.869 338.148 273.465 336.875 279.908 334.33C286.431 331.784 291.482 328.244 295.062 323.71C298.641 319.176 300.431 313.966 300.431 308.08C300.431 302.591 298.8 297.977 295.539 294.239C292.357 290.5 287.664 287.318 281.46 284.693C275.335 282.068 267.817 279.682 258.908 277.534L232.3 270.852C211.698 265.841 195.431 258.006 183.499 247.347C171.567 236.687 165.641 222.33 165.721 204.273C165.641 189.477 169.579 176.551 177.533 165.494C185.567 154.438 196.585 145.807 210.585 139.602C224.585 133.398 240.494 130.295 258.312 130.295C276.448 130.295 292.278 133.398 305.8 139.602C319.403 145.807 329.982 154.438 337.539 165.494C345.096 176.551 348.994 189.358 349.232 203.915H299.715Z" fill="white"/>
</g>
<defs>
<clipPath id="clip0_2_16">
<rect width="512" height="512" fill="white"/>
</clipPath>
</defs>
</svg>
